<?xml version="1.0" encoding="utf-8"?>
<!-- Designed by Vexels.com - 2016 All Rights Reserved - https://vexels.com/terms-and-conditions/  -->

<svg version="1.1" id="Capa_1" xmlns="http://www.w3.org/2000/svg" xmlns:xlink="http://www.w3.org/1999/xlink" x="0px" y="0px"
	 width="1200px" height="1200px" viewBox="0 0 1200 1200" enable-background="new 0 0 1200 1200" xml:space="preserve">
<g>
	<g>
		<path fill="#46444C" d="M760.28,503.89c-235.704,0-404.031,171.409-480.933,184.412c-14.001,2.366-27.591,3.63-40.639,3.63
			c-95.503,0-163.371-67.608-166.36-266.315c-31.077,105.736-29.17,222.104,13.11,333.042
			c49.888,130.923,146.75,230.166,264.05,285.881c-13.769,20.767-24.67,44.299-30.747,70.841l-5.328,23.268l23.09,5.971
			c1.966,0.495,21.696,5.382,51.463,5.382c41.976,0,103.88-9.734,163.871-55.228c7.308,0.307,14.635,0.48,21.979,0.48
			c61.869,0,124.729-11.046,185.976-34.388c192.294-73.282,316.177-247.834,334.224-439.752
			C971.957,534.629,860.067,503.89,760.28,503.89z M374.869,1100.651c5.561-13.255,12.788-25.476,21.104-36.722
			c24.383,8.831,49.441,15.869,74.97,21.016C432.636,1100.484,397.55,1102.055,374.869,1100.651z M742.344,1015.02
			c-54.298,20.689-110.988,31.175-168.505,31.175c-48.135,0-95.493-7.279-140.788-21.409c32.659-27.728,69.302-45.989,92.566-55.888
			v-52.831c-24.411,8.784-91.705,36.367-144.034,89.297c-25.498-11.355-50.121-24.997-73.595-40.887
			c-80.741-54.63-141.831-131.841-176.685-223.288c-4.949-13.001-9.317-26.135-13.089-39.348
			c37.216,29.726,80.513,39.157,120.495,39.157c15.444,0,31.869-1.445,48.824-4.323c34.352-5.806,72.602-29.007,121.02-58.37
			c87.24-52.896,206.719-125.351,351.727-125.351c94.717,0,187.038,30.09,281.409,91.851
			C1015.816,813.426,903.196,953.717,742.344,1015.02z"/>
		<path fill="#46444C" d="M164.317,614.66c-40.624-79.03-7.947-216.44,90.872-270.601c15.296-8.385,31.536-11.837,48.49-11.837
			c77.659,0,170.592,72.179,259.532,72.179c17.087,0,33.989-2.653,50.646-8.999c5.232-1.99,10.164-4.127,14.948-6.313
			c-0.62-65.257-8.673-122.957-56.233-191.138c63.717-19.54,95.504-98.588,110.172-117.152
			c-23.026-13.628-60.79-25.2-112.127-30.799c-60.87,0.355-122.715,11.356-182.956,34.305
			c-104.904,39.98-189.348,110.173-247.478,196.803C72.868,386.788,93.365,576.422,164.317,614.66z M181.268,307.939
			c54.738-81.359,132.151-142.83,223.863-177.789c52.411-19.96,107.216-30.407,162.955-31.067
			c16.167,1.858,29.805,4.246,41.253,6.825c-13.537,19.565-30.768,38.884-51.149,45.133l-64.389,19.74l38.526,55.234
			c31.083,44.57,42.401,83.189,45.985,128.246c-4.828,0.719-9.84,1.075-15.101,1.075c-36.314,0-78.78-17.415-119.855-34.249
			c-45.48-18.649-92.493-37.928-139.676-37.928c-26.199,0-50.442,6.018-72.073,17.869c-29.555,16.205-54.19,38.023-73.913,63.219
			C163.04,343.809,170.784,324.528,181.268,307.939z"/>
		<path fill="#46444C" d="M839.627,602.572c-23.037,0-41.707,18.671-41.707,41.705c0,23.037,18.67,41.703,41.707,41.703
			c23.028,0,41.704-18.666,41.704-41.703C881.331,621.243,862.655,602.572,839.627,602.572z"/>
		<path fill="#46444C" d="M835.604,371.627c52.355,0,94.798-42.431,94.798-94.783c0-52.353-42.442-94.784-94.798-94.784
			c-52.343,0-94.778,42.431-94.778,94.784C740.825,329.196,783.262,371.627,835.604,371.627z M817.784,215.437
			c23.027,0,41.708,18.666,41.708,41.703s-18.681,41.706-41.708,41.706c-23.026,0-41.7-18.668-41.7-41.706
			S794.758,215.437,817.784,215.437z"/>
		<path fill="#46444C" d="M684.981,609.887c0.095-0.194,0.228-0.375,0.32-0.566c-20.869,3.968-41.145,9.381-60.791,15.87
			c-43.899,122.825,6.787,263.175,124.787,327.712c2.022,1.102,4.11,2.073,6.152,3.123c18.916-8.894,36.913-19.039,53.989-30.299
			c-12.608-4.191-24.874-9.459-36.598-15.871C665.917,851.373,626.502,716.812,684.981,609.887z"/>
		<path fill="#46444C" d="M803.541,456.656c101.883,8.375,203.365,46.362,302.451,113.185
			c-23.617-36.838-56.482-68.44-97.495-90.875c-39.687-21.693-84.415-33.168-129.371-33.168
			C853.149,445.797,827.762,449.603,803.541,456.656z"/>
		<path fill="#46444C" d="M1140.248,648.568c-15.879,118.811-67.32,226.464-145.226,311.07
			c50.405-24.022,93.095-63.389,120.837-114.113C1150.072,782.98,1156.801,712.698,1140.248,648.568z"/>
	</g>
</g>
</svg>
